<?xml version="1.0" encoding="utf-8"?>
<!-- Generator: Adobe Illustrator 22.0.1, SVG Export Plug-In . SVG Version: 6.00 Build 0)  -->
<svg version="1.1" id="Layer_1" xmlns="http://www.w3.org/2000/svg" xmlns:xlink="http://www.w3.org/1999/xlink" x="0px" y="0px"
	 width="250.1px" height="246.63px" viewBox="0 0 250.1 246.63" enable-background="new 0 0 250.1 246.63" xml:space="preserve">
<g>
	<path fill-rule="evenodd" clip-rule="evenodd" fill="#142F53" d="M208.16,140.38v-89.3c0-4.33-5.59-2.75-5.59-2.75
		c-22.34,7.48-48.26,1.97-48.26,1.97c-4.89-1.01-9.2-1.35-13.32-1.32c0.74,6-0.36,10.03-0.36,10.03l3.73,1.71l-4.69,9.06
		l-7.75,121.15c-2.22,10.07-5.74,5.61-5.74,5.61L109.96,59.1c0,0-3.66-2.49-4.4-3.72c-1.35-2.28-2.87-5.97-2.87-5.97
		c-2.43,0.2-4.35,0.14-6.96,0.68c0,0-25.93,5.51-48.27-1.97c0,0-5.59-1.57-5.59,2.75v89.3c0,0-0.93,14.79,7.37,33.26l3.6-1.68
		c0,0-7.79,16.85,10.07,12.39c1.15-0.29,3.54-1.17,5.45-0.76c3.58,0.76,8.63,3.92,6.84,8.52c0,0,18.22,23.42,48.98,23.42
		c32.16,0,50.64-23.22,50.64-23.22c-1.79-4.61,3.28-7.67,6.84-8.52c2.01-0.48,5.97,0.51,7.58,0.74c14.66,2.16,8.23-12.71,8.23-12.71
		l3.55,1.5C209.33,154.65,208.16,140.38,208.16,140.38"/>
	<path fill="#FFFFFF" d="M111.83,14.97c12.46,4.54,20.69,12.02,26.02,22.55c2.86,5.65,2.92,20.09,2.19,21.18l4.32,2.01l-4.69,9.06
		l-7.75,121.15c0,0-1.15,6.6-3.93,6.6c-0.82,0-1.44-0.61-1.8-0.98L110.22,61.28c-0.54-0.45-1.09-1-1.59-1.66
		c-2.01-2.65-5.93-8.31-6.85-13.79c-0.91-5.48-2.19-11.41-3.29-12.05c0,0,7.26-0.03,9.4,5.02c1.21,2.86-0.55-6.03-2.19-8.68
		c-1.64-2.65-10.2-13.49-9.74-22.44c0,0,14.45,12.85,18.66,15.41C114.63,23.1,111.28,19.26,111.83,14.97 M201.06,138.58
		c0,1.08-0.9,1.95-2,1.95l-3.93,1.15v11.9c0,1.15-0.96,2.09-2.14,2.09h-58.82l0.43-6.66c9.34-1.7,19.57,0.21,19.57,0.21
		c16.48,2.48,35.61-0.44,35.61-0.44l0.19-0.2l-0.34-71.82l-2.42-4.83l5.77-0.05c1.18,0,2.14,1.35,2.14,2.5v12.05l3.93,0.85
		c1.1,0,2,0.87,2,1.95c0,1.08-0.9,1.95-2,1.95l-3.93,0.84v43.83l3.93,0.76C200.16,136.63,201.06,137.5,201.06,138.58z
		 M118.05,144.18l0.48,5.87c-8.85-3.13-23.82-0.83-23.82-0.83c-16.57,2.48-36-0.64-36-0.64l0.34-71.81l2.26-4.43l-6.37,0
		c-0.56,0-1.41,0.9-1.41,2.06v12.05l-3.96,0.85c-1.11,0-2.01,0.87-2.01,1.95c0,1.08,0.9,1.95,2.01,1.95l3.96,0.84v43.83l-3.96,0.76
		c-1.11,0-2.01,0.88-2.01,1.96c0,1.08,0.9,1.95,2.01,1.95l3.96,1.15v11.9c0,1.15,0.96,2.09,2.15,2.09h65.69l-1.3-10.98
		L118.05,144.18z M141.54,69.26c-1.05,0-0.92,0.45-1.86,0.51l-4.65,72.76c7.41-1.3,15.65,0.08,15.65,0.08
		c21.05,1.96,33.78-0.01,33.78-0.01l0.55-73.68C163.24,75.45,141.54,69.26,141.54,69.26z M120.12,145.18
		c-8.5-4.63-22.72-2.29-22.72-2.29c-21.16,1.96-33.97-0.01-33.97-0.01l0.14-73.75c25.45,7.14,46.5-0.62,46.5-0.62l1.03,0.22
		L120.12,145.18z"/>
	<path fill="#C6A141" d="M118.77,149.38c-8.92-3.15-23.55-0.96-24.17-0.86c-14.93,2.24-32.26,0.02-35.17-0.38l0.33-71.19l3.64-7.15
		l-0.15-1.51l-0.58-0.21l-4.34,8.53l-0.34,72.27l0.56,0.59l0.24,0.04c0.13,0.02,9.67,1.44,21.03,1.44c4.86,0,10.05-0.26,14.99-1
		c0.15-0.02,14.89-2.23,23.47,0.8c0.37,0.13,0.78-0.06,0.92-0.44C119.34,149.93,119.14,149.51,118.77,149.38z"/>
	<path fill="#C6A141" d="M190.69,148.87l-0.55,0.58l-0.24,0.04c-0.13,0.02-9.62,1.44-20.92,1.44c-4.83,0-10-0.26-14.91-1
		c-0.11-0.02-10.72-1.62-19.13-0.24c-0.39,0.07-0.76-0.2-0.82-0.59c-0.06-0.39,0.2-0.76,0.59-0.82c8.64-1.41,19.13,0.17,19.58,0.24
		c14.84,2.23,32.07,0.02,34.97-0.38l-0.33-71.19l-3.68-7.35l0.14-1.53l0.6-0.22l4.38,8.75L190.69,148.87z M55.67,155.03h65.61
		l0.15,1.3H55.67c-1.54,0-2.8-1.23-2.8-2.74v-11.41l-3.41-0.99c-1.42-0.05-2.56-1.2-2.56-2.61c0-1.41,1.16-2.57,2.6-2.61l3.38-0.65
		V92.57l-3.38-0.72c-1.44-0.04-2.59-1.19-2.59-2.61c0-1.41,1.16-2.57,2.59-2.6l3.38-0.72V74.4c0-1.5,1.13-2.71,2.06-2.71l6.72-0.03
		l-0.68,1.33l-6.04,0c-0.18,0.03-0.76,0.58-0.76,1.4v12.57l-4.61,0.97c-0.75,0-1.36,0.58-1.36,1.3c0,0.72,0.61,1.3,1.36,1.3
		l0.13,0.02l4.48,0.95v44.9l-4.61,0.87c-0.75,0-1.36,0.58-1.36,1.3c0,0.72,0.61,1.3,1.36,1.3l0.18,0.03l4.43,1.29v12.39
		C54.17,154.38,54.85,155.03,55.67,155.03z M124.19,216.63c-31.05,0-49.83-23.69-50.02-23.93l-0.45-0.58l0.27-0.69
		c0.42-1.09,0.37-2.09-0.15-3.06c-1.05-1.93-3.71-3.28-5.75-3.71c-0.24-0.05-0.51-0.08-0.81-0.08c-1.13,0-2.4,0.36-3.32,0.62
		c-0.28,0.08-0.53,0.15-0.73,0.2c-6.24,1.56-10.35,0.79-12.27-2.22c-1.68-2.62-1.13-6.33-0.39-8.93l-1.97,0.92l-0.54-1.21
		c-8.2-18.23-7.54-32.76-7.48-33.83V50.87c0-2.71,1.78-4.34,4.75-4.34c1.31,0,2.44,0.32,2.49,0.33l0.06,0.02
		c7.64,2.56,16.56,3.86,26.49,3.86c11.89,0,21-1.91,21.09-1.93c1.95-0.4,3.49-0.48,5.12-0.57c0.64-0.03,1.3-0.07,2.01-0.13
		l0.95-0.08l0.36,0.88c0.01,0.04,1.5,3.63,2.79,5.8c0.36,0.61,2.36,2.19,4.01,3.31l0.49,0.34l0.07,0.59l16.16,137
		c0.17,0.14,0.39,0.27,0.58,0.27c0.48,0,1.65-1.15,2.61-5.47l7.76-121.33l4.18-8.09l-3.49-1.6l0.29-1.07
		c0.01-0.04,1.02-3.9,0.32-9.53l-0.18-1.46l2-0.01c4.39,0,8.66,0.44,13.06,1.35c0.1,0.02,9.23,1.93,21.1,1.93
		c9.93,0,18.85-1.3,26.49-3.85l0.06-0.02c0.05-0.01,1.18-0.33,2.49-0.33c2.97,0,4.75,1.62,4.75,4.34v89.25
		c0.08,1.15,0.92,15.16-7.25,33.32l-0.52,1.16l-2.08-0.88c0.64,2.51,1.09,6.17-0.64,8.8c-1.72,2.62-5.05,3.6-9.91,2.88
		c-0.37-0.05-0.85-0.15-1.4-0.25c-1.37-0.26-3.24-0.61-4.65-0.61c-0.43,0-0.78,0.03-1.04,0.1c-2.17,0.53-4.82,1.91-5.82,3.82
		c-0.49,0.93-0.53,1.91-0.12,2.97l0.27,0.7l-0.47,0.59C175.67,193.15,156.61,216.63,124.19,216.63 M76.67,191.62
		c2.91,3.41,20.32,22.4,47.52,22.4c28.45,0,46.2-18.8,49.17-22.21c-0.39-1.5-0.23-2.99,0.48-4.36c1.47-2.81,4.97-4.53,7.52-5.14
		c0.47-0.11,1.01-0.17,1.65-0.17c1.66,0,3.67,0.38,5.13,0.66c0.51,0.1,0.95,0.18,1.29,0.23c3.72,0.55,6.24-0.04,7.35-1.73
		c1.7-2.59,0.21-7.5-0.51-9.17l-1.28-2.98l5.35,2.26c7.51-17.38,6.52-30.79,6.51-30.92l-0.01-0.11v-89.3c0-0.84-0.17-1.73-2.14-1.73
		c-0.85,0-1.62,0.19-1.76,0.23c-7.9,2.64-17.08,3.97-27.28,3.98c-12.16,0-21.25-1.9-21.64-1.98c-3.9-0.81-7.7-1.23-11.59-1.28
		c0.3,3.69-0.05,6.52-0.31,7.97l4.02,1.85l-5.19,10.03l-7.74,120.98l-0.02,0.1c-0.41,1.89-1.68,7.62-5.18,7.62
		c-1.64,0-2.73-1.33-2.85-1.48l-0.23-0.29L108.74,59.84c-1.23-0.86-3.58-2.61-4.29-3.79c-0.99-1.67-2.05-4.01-2.59-5.27
		c-0.39,0.03-0.76,0.04-1.14,0.07c-1.53,0.08-2.98,0.16-4.72,0.52c-0.38,0.08-9.47,1.98-21.63,1.98c-10.2,0-19.38-1.34-27.28-3.98
		c-0.14-0.03-0.91-0.22-1.76-0.22c-1.98,0-2.14,0.89-2.14,1.73l0,89.38c-0.01,0.14-0.77,14.07,6.72,31.43l5.63-2.63l-1.5,3.24
		c-0.81,1.75-2.54,6.88-0.87,9.49c0.78,1.21,2.24,1.8,4.49,1.8c1.39,0,3.05-0.24,4.95-0.71c0.18-0.04,0.41-0.11,0.65-0.18
		c1.01-0.29,2.54-0.72,4.04-0.72c0.48,0,0.93,0.04,1.35,0.13c2.5,0.53,5.96,2.16,7.5,5.02C76.9,188.53,77.08,190.07,76.67,191.62
		 M168.67,144.2c-5.02,0-11.1-0.22-18.07-0.87c-0.13-0.02-8.26-1.35-15.46-0.09c-0.39,0.07-0.76-0.19-0.83-0.58
		c-0.07-0.39,0.19-0.76,0.58-0.83c7.44-1.31,15.55,0.02,15.9,0.08c18.12,1.69,30.19,0.42,32.95,0.07l0.54-72.1
		c-20.65,5.85-41.22,0.53-42.84,0.1c-0.39,0-0.46,0.03-0.54,0.05c-0.18,0.05-0.37,0.1-0.84,0.13c-0.4,0.02-0.74-0.28-0.76-0.67
		c-0.02-0.39,0.28-0.74,0.67-0.76c0.35-0.02,0.44-0.05,0.53-0.07c0.22-0.06,0.41-0.11,1.04-0.11l0.2,0.03
		c0.22,0.06,21.76,6.05,43.07-0.33l0.93-0.28l-0.56,75.26l-0.6,0.1C184.48,143.33,178.7,144.2,168.67,144.2"/>
	<path fill="#C6A141" d="M199.13,135.98l-3.35-0.65V92.57l3.35-0.72c1.43-0.04,2.58-1.19,2.58-2.61c0-1.41-1.15-2.57-2.58-2.61
		l-3.35-0.72V74.4c0-1.49-1.2-3.15-2.8-3.15l-6.1,0.05l0.65,1.3l5.45-0.04c0.79,0,1.48,1.04,1.48,1.85v12.57l4.45,0.96l0.14,0.01
		c0.74,0,1.35,0.58,1.35,1.3c0,0.72-0.6,1.3-1.35,1.3l-4.59,0.96v44.9l4.46,0.86l0.12,0.01c0.74,0,1.35,0.58,1.35,1.3
		c0,0.72-0.6,1.3-1.35,1.3l-4.59,1.32v12.39c0,0.79-0.67,1.44-1.48,1.44l-58.77,0l-0.08,1.31h58.86c1.54,0,2.79-1.23,2.79-2.74
		v-11.41l3.38-0.99c1.41-0.05,2.55-1.2,2.55-2.61C201.71,137.17,200.56,136.01,199.13,135.98z M119.77,145.01
		c-0.13,0.25-0.38,0.39-0.64,0.39c-0.11,0-0.22-0.03-0.33-0.08c-7.69-3.94-21.15-1.76-21.29-1.74c-21.06,1.96-34.07,0.01-34.2-0.01
		l-0.61-0.1l0.15-75.32l0.91,0.26c24.93,7,45.85-0.52,46.05-0.6l0.12-0.04h0.13c0.88,0,1.26,0.13,1.66,0.31
		c0.21,0.09,0.38,0.16,0.79,0.2c0.39,0.04,0.68,0.39,0.64,0.78c-0.04,0.39-0.39,0.69-0.78,0.64c-0.64-0.06-0.97-0.2-1.23-0.31
		c-0.24-0.1-0.41-0.18-0.97-0.19c-1.79,0.62-21.95,7.25-45.9,0.84l-0.14,72.18c2.78,0.35,14.91,1.62,33.18-0.08
		c0.52-0.09,14.02-2.28,22.13,1.88C119.81,144.23,119.95,144.66,119.77,145.01z"/>
	<path fill="#C6A141" d="M82.17,95.02c0,0.26-0.2,0.42-0.5,0.42c-0.07,0-0.16-0.02-0.27-0.04c-0.61-0.05-1.25-0.11-1.5-0.11
		c-0.31,0,0.28-0.01-1.59,0.09c-0.51,0.01-0.75-0.15-0.75-0.5c0-0.28,0.07-0.35,0.34-0.39c0.77-0.13,0.89-0.37,0.95-1.81l0.02-0.44
		v-2.03c0-0.4-0.02-0.62-0.02-0.68c-0.02-0.09-0.09-0.18-0.18-0.22c-0.11-0.02-0.27-0.03-0.48-0.05l-3.12-0.06
		c-0.4,0-0.55,0.13-0.55,0.42v3.3c0,1.02,0.21,1.37,0.98,1.65c0.39,0.15,0.48,0.24,0.48,0.47c0,0.24-0.14,0.33-0.48,0.33
		c-0.14,0-0.27,0-0.52-0.02c-0.73-0.07-1.25-0.11-1.53-0.11c-0.25,0-0.64,0.04-1.14,0.07c-0.45,0.04-0.53,0.06-0.68,0.06
		c-0.36,0-0.57-0.2-0.57-0.5c0-0.28,0.12-0.4,0.44-0.4c0.69-0.02,0.95-0.59,0.95-2.24V86.3c0-1.81-0.22-2.29-1-2.38
		c-0.23-0.02-0.32-0.11-0.32-0.31c0-0.29,0.21-0.46,0.53-0.46c0.33,0,0.44,0.07,2.12,0.07c0.34,0,0.73,0,1.18-0.02h0.5
		c0.46,0,0.62,0.11,0.62,0.4c0,0.27-0.09,0.38-0.36,0.4c-0.06,0-0.38,0.05-0.55,0.07c-0.41,0.07-0.6,0.35-0.6,0.88L74.5,87.4
		c0,0.48,0.18,0.69,0.5,0.69h3.3c0.52,0,0.57-0.06,0.57-0.75v-1.89c0-0.79-0.2-1.21-0.57-1.32l-0.39-0.11
		c-0.38-0.11-0.5-0.22-0.5-0.46c0-0.26,0.2-0.38,0.71-0.37l1.73,0.11l1.37-0.04c0.57-0.01,0.82,0.15,0.82,0.48
		c0,0.17-0.11,0.29-0.27,0.35l-0.27,0.06c-0.52,0.15-0.62,0.37-0.64,1.41l0.02,6.1c0.02,2.16,0.16,2.71,0.82,2.89
		C82.06,94.67,82.17,94.78,82.17,95.02z M89.02,83.06c-3.26,0-5.78,2.69-5.78,6.17c0,3.53,2.57,6.43,5.69,6.43
		c3.08,0,5.49-2.78,5.49-6.37C94.43,85.66,92.16,83.06,89.02,83.06 M92.23,89.2c0,3.24-1.3,5.46-3.17,5.46
		c-2.05,0-3.51-2.35-3.51-5.61c0-2.98,1.28-4.98,3.21-4.98C90.77,84.07,92.23,86.21,92.23,89.2 M106.13,86.12v-0.15
		c0-1.39,0.11-1.68,0.76-1.96c0.31-0.11,0.41-0.2,0.41-0.37c0-0.26-0.29-0.42-0.73-0.42h-0.12c-0.44,0.02-0.7,0.02-0.75,0.02
		c-0.22,0.02-0.68-0.02-1.37-0.07h-0.14c-0.18-0.02-0.3-0.02-0.37-0.02c-0.5,0-0.77,0.15-0.77,0.46c0,0.2,0.12,0.31,0.44,0.37
		c1.18,0.2,1.42,0.6,1.42,2.27v0.13l0.06,3.75l0.02,0.55c0,0.27-0.05,0.42-0.12,0.42c-0.04,0-0.06-0.04-0.22-0.27
		c-0.07-0.09-0.22-0.27-0.39-0.53c-0.09-0.11-0.16-0.2-0.2-0.25l-4.01-5.11c-1.09-1.39-1.46-1.72-2.01-1.72h-0.11h-1.64h-0.11
		c-0.37,0-0.68,0.25-0.68,0.57c0,0.11,0.04,0.22,0.09,0.33c0.05,0.11,0.12,0.18,0.21,0.17c0-0.02,0.02,0,0.05-0.02
		c0.04-0.02,0.07-0.02,0.07-0.04L96,84.14c0.04-0.05,0.09-0.04,0.14-0.09h0.09c0.73,0,1.41,1.08,1.43,2.29v0.26l0.04,5.73v0.29
		c0,1.19-0.16,1.54-0.84,1.78c-0.59,0.22-0.69,0.31-0.69,0.55c0,0.29,0.23,0.44,0.66,0.44c0.16,0,0.52,0,1.09-0.06
		c0.2-0.02,0.36-0.03,0.48-0.03c0.32,0,0.8,0.03,1.43,0.09c0.14,0,0.23,0.02,0.3,0.02c0.32,0,0.52-0.15,0.52-0.4
		c0-0.22-0.13-0.33-0.66-0.58c-0.84-0.41-0.96-0.74-0.98-2.64l-0.07-4.4v-0.06c0-0.27,0-0.29,0.05-0.29c0.07,0,0.46,0.42,0.82,0.9
		l3.64,4.83c0.39,0.53,0.69,0.95,0.89,1.23c0.52,0.77,0.84,1.26,1,1.47c0.16,0.22,0.32,0.33,0.5,0.33c0.23,0,0.27-0.06,0.27-0.57V95
		L106.13,86.12z M78.56,106.19h-0.13c-0.46,0-0.64-0.13-0.64-0.53v-0.05v-0.07v-2.8v-0.11v-0.04c0-0.44,0.2-0.58,0.8-0.58
		c0.93,0,1.6,0.17,2.28,0.57c0.32,0.2,0.5,0.4,0.5,0.58c0,0.04,0,0.02-0.02,0.07c0,0.04-0.02,0.02-0.03,0.13
		c-0.02,0.09-0.04,0.17-0.04,0.22c0,0.18,0.18,0.31,0.43,0.31c0.52,0,0.94-0.86,0.94-1.92c0-0.44-0.23-0.6-0.94-0.64l-1.82-0.13
		c-0.16-0.02-0.38-0.02-0.66-0.02c-0.38,0-0.93,0-1.66,0.04c-0.39,0.02-0.68,0.02-0.87,0.02c-0.64,0-0.77-0.02-1.46-0.13
		c-0.11-0.02-0.21-0.04-0.27-0.04c-0.25,0-0.43,0.18-0.43,0.42c0,0.2,0.12,0.29,0.8,0.58c0.38,0.17,0.46,0.44,0.46,1.43v7.25v0.24
		c0.02,0.09,0.02,0.18,0.02,0.27c0,0.84-0.11,1.03-0.64,1.16c-0.52,0.13-0.7,0.27-0.7,0.49c0,0.24,0.2,0.36,0.5,0.36
		c0.13,0,0.44,0,1-0.06c0.25-0.03,0.57-0.03,0.93-0.03c0.25,0,0.68,0,1.26,0.03c1.02,0.04,2.07,0.06,3.32,0.09
		c0.71,0.02,1.28,0.04,1.75,0.04h0.09c0.75,0,1.2-1.04,1.2-2.91c0-0.42-0.3-0.78-0.66-0.78c-0.14,0-0.23,0.11-0.23,0.25v0.29
		c0,1.15-1.77,2.12-3.89,2.12c-1.41,0-1.94-0.5-1.94-1.78v-2.53v-0.17c0.02-0.55,0.12-0.62,0.82-0.62h0.06l1.11,0.02
		c0.62,0,1.02,0.31,1.18,0.9c0.16,0.59,0.21,0.66,0.43,0.66c0.29,0,0.41-0.15,0.41-0.53v-0.07l-0.06-0.71c0-0.22-0.02-0.4-0.02-0.55
		c0-0.29,0.05-0.92,0.09-1.35c0.02-0.09,0.02-0.17,0.02-0.22c0-0.26-0.16-0.44-0.41-0.44c-0.25,0-0.36,0.13-0.43,0.57
		c-0.11,0.55-0.3,0.69-0.89,0.69h-0.14H78.56z M87.04,110.1c0-0.22-0.25-0.4-0.59-0.4c-0.38,0-0.59,0.13-0.79,0.48
		c-0.43,0.71-0.66,1.34-0.66,1.74c0,0.11,0.02,0.2,0.07,0.3c0.43,0.75,2.14,1.41,3.55,1.41c2.44,0,4.4-1.92,4.4-4.34
		c0-0.73-0.27-1.39-0.75-1.87c-0.21-0.2-0.46-0.4-0.75-0.58c-0.53-0.35-1.09-0.66-1.68-0.92c-0.16-0.08-0.59-0.26-1.28-0.55
		c-1.09-0.48-1.5-0.92-1.5-1.61c0-0.37,0.09-0.64,0.32-0.99c0.48-0.7,0.8-0.95,1.2-0.95c0.3,0,0.71,0.15,1.09,0.39
		c0.6,0.37,1.02,0.86,1.02,1.25c0,0.07-0.04,0.17-0.11,0.33c-0.05,0.13-0.07,0.18-0.07,0.22c0,0.18,0.23,0.35,0.46,0.35
		c0.36,0,0.66-0.29,0.93-0.84c0.23-0.48,0.34-0.86,0.34-1.12c0-0.13-0.02-0.22-0.07-0.31c-0.36-0.57-1.89-1.12-3.14-1.12
		c-0.78,0-1.5,0.17-2.07,0.48c-1.07,0.6-1.87,1.89-1.87,3.02c0,0.58,0.28,1.14,0.87,1.74c0.59,0.58,1.28,1,2.6,1.57
		c2.14,0.9,2.44,1.17,2.44,2.18c0,1.5-0.87,2.73-1.98,2.73c-1.18,0-2.28-0.97-2.28-2.02c0-0.15,0.02-0.17,0.13-0.27
		C87,110.24,87.04,110.17,87.04,110.1 M102.29,101.27l-6.15-0.09c-0.13-0.02-0.23,0-0.32,0c-0.37,0.02-0.62,0-0.75-0.06l-0.37-0.18
		c-0.13-0.08-0.27-0.11-0.39-0.11c-0.25,0-0.37,0.15-0.53,0.68l-0.39,1.25c-0.07,0.2-0.11,0.4-0.11,0.6c0,0.58,0.31,0.93,0.79,0.93
		c0.2,0,0.25-0.06,0.28-0.37c0.15-0.99,1.27-1.78,2.57-1.78c0.55,0,0.75,0.18,0.75,0.73v0.17v8.11v0.25c0,0.64-0.34,0.9-1.27,0.99
		c-0.29,0.02-0.41,0.17-0.41,0.44c0,0.29,0.23,0.44,0.66,0.44h0.48c0.84-0.06,1.44-0.09,1.73-0.09c0.32,0,0.62,0.02,0.93,0.06
		l0.59,0.05c0.07,0.02,0.13,0.02,0.2,0.02c0.48,0,0.75-0.14,0.75-0.46c0-0.33-0.11-0.4-0.6-0.46c-0.66-0.07-0.86-0.4-0.86-1.52
		v-0.25v-7.2v-0.27c0-0.77,0.18-0.99,0.77-0.99c1,0,1.75,0.42,1.75,0.99c0,0.11-0.04,0.27-0.09,0.5c-0.07,0.26-0.09,0.29-0.09,0.4
		c0,0.22,0.12,0.31,0.43,0.31c0.48,0,0.75-0.24,0.91-0.84l0.34-1.19c0.11-0.4,0.16-0.66,0.16-0.77c0-0.07-0.02-0.15-0.05-0.24
		c-0.07-0.11-0.23-0.22-0.36-0.22c-0.06,0-0.09,0-0.55,0.13c-0.13,0.04-0.32,0.06-0.62,0.04H102.29z M85.2,126.46h0.38
		c0.59,0.02,0.66,0.09,0.93,0.85l0.39,1.14c0.02,0.02,0.05,0.17,0.11,0.44c0.03,0.18,0.05,0.37,0.05,0.46
		c0,0.48-0.22,0.75-0.62,0.88c-0.41,0.11-0.46,0.15-0.46,0.4c0,0.31,0.2,0.44,0.57,0.44h0.23c0.68-0.04,1.18-0.05,1.5-0.05
		c0.62,0,1.27,0.05,1.62,0.11c0.2,0.05,0.34,0.07,0.39,0.07c0.27,0,0.48-0.2,0.48-0.46c0-0.18-0.07-0.24-0.39-0.4
		c-0.59-0.26-0.93-0.69-1.27-1.68c-0.25-0.75-0.46-1.32-0.64-1.7l-2.19-5.12l-1.05-2.27c-0.36-0.73-0.53-0.92-0.88-0.93
		c-0.3,0-0.41,0.15-0.46,0.66c-0.04,0.35-0.09,0.53-0.32,1.08c-0.05,0.15-0.28,0.7-0.66,1.67l-1.91,4.8l-0.53,1.54
		c-0.3,0.84-0.78,1.49-1.34,1.7l-0.21,0.09c-0.18,0.09-0.24,0.16-0.24,0.35c0,0.31,0.22,0.48,0.57,0.48h0.22
		c0.5-0.04,0.87-0.05,1.12-0.05c0.31,0,0.66,0.02,1.05,0.05c0.36,0.04,0.55,0.06,0.59,0.06h0.29c0.34,0,0.5-0.11,0.5-0.38
		c0-0.24-0.05-0.29-0.38-0.44c-0.59-0.27-0.91-0.69-0.91-1.26c0-0.18,0.04-0.42,0.09-0.59l0.46-1.42c0.11-0.37,0.2-0.44,0.48-0.46
		h0.43H85.2z M83.56,125.31h-0.11c-0.3,0-0.53-0.15-0.53-0.33c0-0.15,0.02-0.22,0.14-0.58l0.6-1.83c0.18-0.51,0.27-0.68,0.39-0.68
		c0.12,0,0.25,0.18,0.43,0.62l0.8,1.98c0.18,0.42,0.2,0.49,0.2,0.6c0,0.17-0.11,0.22-0.38,0.22h-0.11H83.56z M93.24,127.87
		c0-0.22-0.25-0.4-0.59-0.4c-0.37,0-0.59,0.13-0.78,0.47c-0.43,0.71-0.66,1.34-0.66,1.74c0,0.11,0.02,0.2,0.07,0.29
		c0.43,0.75,2.14,1.41,3.55,1.41c2.44,0,4.4-1.92,4.4-4.34c0-0.73-0.27-1.39-0.75-1.87c-0.22-0.2-0.46-0.4-0.75-0.59
		c-0.53-0.35-1.09-0.66-1.67-0.92c-0.16-0.07-0.59-0.26-1.28-0.55c-1.09-0.48-1.5-0.92-1.5-1.61c0-0.37,0.09-0.64,0.32-0.99
		c0.48-0.69,0.8-0.95,1.2-0.95c0.3,0,0.71,0.15,1.09,0.39c0.6,0.37,1.02,0.86,1.02,1.25c0,0.07-0.04,0.16-0.11,0.33
		c-0.05,0.13-0.07,0.18-0.07,0.22c0,0.18,0.23,0.35,0.46,0.35c0.36,0,0.66-0.29,0.93-0.84c0.23-0.48,0.34-0.86,0.34-1.12
		c0-0.13-0.02-0.22-0.07-0.31c-0.36-0.57-1.89-1.12-3.14-1.12c-0.78,0-1.5,0.16-2.07,0.47c-1.07,0.61-1.87,1.89-1.87,3.03
		c0,0.58,0.28,1.13,0.87,1.74c0.59,0.59,1.28,1.01,2.61,1.58c2.14,0.9,2.44,1.17,2.44,2.18c0,1.5-0.88,2.73-1.98,2.73
		c-1.18,0-2.28-0.97-2.28-2.01c0-0.15,0.02-0.17,0.13-0.28C93.2,128.02,93.24,127.94,93.24,127.87 M100.04,218.48
		c-0.59-0.15-2.39-0.85-3.16-1.17c-1.09-0.44-2.91-1.19-3.64-1.61c-0.04-0.04-0.09-0.06-0.15-0.06c-0.22,0-0.3,0.31-0.33,0.44
		c-0.01,0.08-0.06,0.31,0.1,0.37c1.56,0.86,2.15,1.18,1.29,3.27l-2.76,6.76c-0.59,1.44-1.07,1.72-1.66,1.72
		c-0.39,0-0.88-0.14-1.48-0.31l-0.12-0.03c-0.21,0-0.41,0.42-0.42,0.59c-0.01,0.13,0.08,0.24,0.18,0.24
		c0.83,0.22,2.65,0.96,3.75,1.41c0.78,0.32,2.55,1.07,3.05,1.37c0.04,0.04,0.09,0.06,0.15,0.06c0.28,0,0.39-0.51,0.39-0.52
		c0.04-0.2-0.04-0.27-0.1-0.29c-1.59-0.83-2.1-1.22-1.28-3.23l2.77-6.76c0.6-1.46,1.08-1.74,1.71-1.74c0.39,0,0.87,0.12,1.46,0.3
		l0.07,0.01c0.22,0,0.36-0.42,0.37-0.56C100.23,218.57,100.12,218.48,100.04,218.48 M113.29,221.5c1.88,0.34,3.38,1.27,4.32,2.68
		c0.88,1.31,1.19,2.93,0.89,4.57c-0.47,2.59-2.8,8.72-14.14,9.76h-0.03c-0.19,0-0.34-0.17-0.36-0.41c-0.01-0.22,0.09-0.39,0.26-0.41
		c6.71-1.08,10.44-4.22,11.43-9.6c0.28-1.54,0.12-2.9-0.47-3.92c-0.53-0.92-1.41-1.53-2.46-1.72c-1.96-0.36-3.39,0.92-3.85,3.39
		c-0.19,1.04-0.05,1.97,0.4,2.7c0.45,0.73,1.19,1.2,2.14,1.37c0.18,0.03,0.38,0.05,0.6,0.05c0.38,0,0.71-0.05,0.86-0.1
		c0.03-0.01,0.07-0.02,0.1-0.02c0.21,0,0.37,0.19,0.41,0.37c0.04,0.16-0.01,0.29-0.14,0.36c-0.91,0.62-2.36,0.95-3.42,0.76
		c-1.77-0.32-2.72-1.32-3.21-2.09c-0.6-0.97-0.84-2.17-0.63-3.29c0.48-2.65,3.01-4.58,5.99-4.58
		C112.42,221.38,112.86,221.42,113.29,221.5 M134.69,222.02c-0.34,0-0.7,0.03-1.04,0.08c-4.26,0.63-7.1,4.42-6.48,8.63
		c0.51,3.48,3.49,6.1,6.92,6.1c0.34,0,0.69-0.03,1.03-0.08c4.29-0.64,7.16-4.43,6.54-8.64
		C141.14,224.64,138.14,222.02,134.69,222.02 M135.56,235.42c-0.19,0.03-0.38,0.04-0.57,0.04c-2,0-4.56-1.59-5.23-6.06
		c-0.25-1.66-0.03-3.1,0.61-4.17c0.62-1.02,1.6-1.65,2.85-1.84c0.19-0.03,0.38-0.04,0.57-0.04c2.02,0,4.6,1.59,5.26,6.08
		C139.55,232.74,138.21,235.03,135.56,235.42 M162.59,225.62c1.08,2.93-0.72,6.4-3.93,7.59c-0.8,0.3-1.61,0.45-2.38,0.45
		c-2.65,0-4.94-1.74-5.97-4.53c-1.65-4.46,0.07-11.47,7.61-17.07c0.05-0.04,0.11-0.06,0.17-0.06c0.19,0,0.37,0.19,0.44,0.37
		c0.05,0.14,0.02,0.27-0.07,0.34c-7.61,6.54-6.33,12.94-5.43,15.38c0.93,2.51,2.73,4.14,4.59,4.14c0.38,0,0.75-0.07,1.11-0.2
		c1.72-0.64,2.29-2.52,1.45-4.81c-0.64-1.72-1.82-2.75-3.18-2.75c-0.35,0-0.72,0.07-1.09,0.2c-0.46,0.17-1,0.64-1.21,0.91
		c-0.02,0.03-0.08,0.08-0.18,0.08c-0.17,0-0.53-0.18-0.59-0.32l-0.04-0.1l0.05-0.06c0.49-1.11,1.53-2.12,2.59-2.51
		c0.55-0.2,1.11-0.31,1.66-0.31C160.4,222.36,161.99,224,162.59,225.62 M146.29,92.53v0.22c0,1.2-0.16,1.53-0.73,1.53
		c-0.38,0-0.56,0.17-0.56,0.44c0,0.27,0.22,0.48,0.56,0.48c0.07,0,0.14,0,0.23-0.02c0.02,0,0.07,0,0.2-0.02
		c0.29-0.04,0.57-0.06,0.86-0.06c0.25,0,0.61,0.02,1.04,0.04c0.18,0.02,0.32,0.04,0.39,0.04c0.06,0,0.2,0,0.45,0.02l1.26,0.02h0.11
		c3.06,0,5.17-2.43,5.17-5.96c0-1.25-0.32-2.46-0.91-3.53c-1.06-1.91-2.83-2.72-5.91-2.72h-0.7c-0.3,0.02-0.52,0.02-0.66,0.02
		c-0.22,0-0.36-0.02-1.04-0.06c-0.23-0.02-0.43-0.04-0.59-0.04h-0.05c-0.29,0-0.34,0.08-0.34,0.44c0,0.2,0.09,0.31,0.27,0.39
		l0.2,0.07c0.68,0.24,0.73,0.35,0.73,1.34v0.31L146.29,92.53z M148.32,85.54c0-1.14,0.22-1.64,0.68-1.64c0.63,0,1.51,0.26,2.19,0.66
		c1.18,0.68,1.95,2.5,1.95,4.61c0,1.25-0.34,2.71-0.84,3.59c-0.55,1.01-1.51,1.54-2.79,1.54c-0.92,0-1.18-0.33-1.18-1.4v-0.18V85.54
		z M159.66,86.09v-0.16c0-1.46,0.15-1.82,0.68-1.91c0.41-0.07,0.55-0.2,0.55-0.53c0-0.26-0.22-0.42-0.52-0.42
		c-0.14,0-0.45,0.02-0.91,0.07c-0.23,0.02-0.5,0.02-0.79,0.02c-0.46,0-0.9-0.02-1.32-0.07c-0.23-0.04-0.41-0.04-0.52-0.04
		c-0.29,0-0.48,0.17-0.48,0.44c0,0.26,0.11,0.33,0.54,0.42c0.61,0.11,0.77,0.55,0.77,2.17v0.07v6.16v0.11c0,1.16-0.07,1.51-0.4,1.66
		l-0.57,0.25c-0.22,0.11-0.34,0.28-0.34,0.46c0,0.27,0.25,0.44,0.65,0.44c0.09,0,0.29-0.02,0.48-0.04c0.52-0.05,0.88-0.09,1.24-0.09
		c0.34,0,0.7,0.04,1.09,0.09c0.27,0.02,0.48,0.04,0.66,0.04c0.31,0,0.5-0.15,0.5-0.42c0-0.37-0.11-0.46-0.7-0.57
		c-0.43-0.07-0.61-0.64-0.61-2.02l0.02-0.24L159.66,86.09z M166.23,91.93v-6.4c0-1.1,0.27-1.53,1.05-1.64l0.24-0.02
		c0.22-0.04,0.34-0.15,0.34-0.37c0-0.29-0.25-0.46-0.68-0.46H167l-0.2,0.02c-0.34,0.02-0.75,0.02-1.23,0.02
		c-0.84,0-1.74-0.04-2.17-0.09c-0.13-0.02-0.22-0.02-0.31-0.02c-0.23,0-0.41,0.17-0.41,0.41c0,0.18,0.14,0.35,0.36,0.4l0.55,0.19
		c0.39,0.11,0.57,0.62,0.57,1.62v0.22l0.02,6.42c0,1.55-0.14,1.95-0.75,2.08c-0.48,0.11-0.62,0.2-0.62,0.46
		c0,0.24,0.21,0.41,0.53,0.41c0.11,0,0.27,0,0.48-0.04c0.34-0.04,0.66-0.05,0.99-0.05h0.38c0.99,0.04,1.59,0.04,1.83,0.05l1.95,0.07
		l1.29-0.02h0.23h0.09c0.39,0,0.46-0.04,0.61-0.42l0.25-0.63c0.25-0.68,0.39-1.27,0.39-1.75c0-0.5-0.29-0.96-0.59-0.96
		c-0.18,0-0.25,0.13-0.34,0.55c-0.11,0.5-0.23,0.76-0.55,1.03c-0.88,0.77-1.93,1.18-3.06,1.18c-0.75,0-1.04-0.28-1.04-1.03
		l-0.02-1.09V91.93z M176.27,85.81v-0.17c0-1.45,0.14-1.82,0.68-1.91c0.41-0.08,0.55-0.2,0.55-0.54c0-0.26-0.22-0.42-0.52-0.42
		c-0.15,0-0.45,0.02-0.92,0.07c-0.23,0.02-0.5,0.02-0.79,0.02c-0.47,0-0.9-0.02-1.33-0.07c-0.23-0.04-0.41-0.04-0.52-0.04
		c-0.29,0-0.48,0.17-0.48,0.44c0,0.26,0.11,0.33,0.54,0.43c0.61,0.11,0.77,0.55,0.77,2.17v0.07v6.17v0.11
		c0,1.16-0.07,1.51-0.39,1.66l-0.57,0.26c-0.21,0.11-0.34,0.27-0.34,0.46c0,0.27,0.25,0.44,0.64,0.44c0.09,0,0.29-0.02,0.48-0.03
		c0.52-0.06,0.88-0.09,1.23-0.09c0.34,0,0.7,0.04,1.09,0.09c0.27,0.02,0.48,0.03,0.66,0.03c0.3,0,0.5-0.15,0.5-0.42
		c0-0.37-0.11-0.46-0.7-0.57c-0.43-0.07-0.61-0.64-0.61-2.02l0.02-0.24L176.27,85.81z M154.68,109.41v-1.23v-0.11v-0.04
		c0-0.39,0.09-0.51,0.45-0.68c0.31-0.15,0.36-0.2,0.36-0.4c0-0.26-0.14-0.43-0.39-0.43c-0.07,0-0.18,0.02-0.29,0.02
		c-0.18,0.02-0.32,0.04-0.45,0.04c-0.18,0-0.5-0.02-0.93-0.07c-0.36-0.04-0.64-0.07-0.88-0.07c-0.88,0-1.53,0.37-1.53,0.83
		c0,0.24,0.18,0.43,0.41,0.43c0.05,0,0.12-0.02,0.2-0.04l0.13-0.06c0.05-0.02,0.13-0.05,0.22-0.07c0.07-0.02,0.12-0.02,0.14-0.02
		c0.36,0,0.63,0.41,0.63,0.9v0.11v1.51c0,1.46-0.82,2.28-2.29,2.28c-2.13,0-3.78-2.45-3.78-5.63c0-2.85,1.43-5.08,3.28-5.08
		c0.92,0,1.84,0.57,2.35,1.45c0.14,0.26,0.27,0.64,0.27,0.83v0.09c0,0.04,0,0.04-0.02,0.09c0,0.19,0.23,0.33,0.52,0.33
		c0.43,0,0.77-0.88,0.77-2.06c0-0.33-0.11-0.59-0.32-0.75c-0.66-0.53-2.1-0.95-3.24-0.95c-3.37,0-5.88,2.67-5.88,6.23
		c0,3.57,2.72,6.46,6.06,6.46c0.84,0,1.49-0.18,2.27-0.62c1.4-0.81,2.28-1.67,2.28-2.17c0-0.06-0.05-0.15-0.16-0.28
		c-0.07-0.08-0.11-0.08-0.11-0.13c-0.04-0.07-0.05-0.22-0.05-0.39V109.41z M160.31,106h-0.12c-0.47,0-0.65-0.13-0.65-0.53v-0.05
		v-0.07v-2.82v-0.11v-0.04c0-0.44,0.2-0.59,0.81-0.59c0.93,0,1.61,0.17,2.29,0.57c0.32,0.2,0.5,0.41,0.5,0.59
		c0,0.04,0,0.02-0.02,0.07c0,0.04-0.02,0.02-0.04,0.13c-0.02,0.09-0.03,0.17-0.03,0.22c0,0.18,0.18,0.31,0.43,0.31
		c0.52,0,0.95-0.86,0.95-1.93c0-0.44-0.23-0.61-0.95-0.64l-1.83-0.13c-0.16-0.02-0.38-0.02-0.66-0.02c-0.38,0-0.93,0-1.67,0.04
		c-0.39,0.02-0.68,0.02-0.88,0.02c-0.64,0-0.77-0.02-1.47-0.13c-0.11-0.02-0.22-0.04-0.27-0.04c-0.25,0-0.43,0.18-0.43,0.42
		c0,0.2,0.13,0.29,0.81,0.59c0.38,0.17,0.47,0.44,0.47,1.44v7.28v0.24c0.02,0.09,0.02,0.18,0.02,0.28c0,0.85-0.11,1.03-0.65,1.16
		c-0.52,0.13-0.7,0.27-0.7,0.5c0,0.24,0.2,0.37,0.5,0.37c0.12,0,0.44,0,1-0.06c0.25-0.03,0.57-0.03,0.93-0.03
		c0.25,0,0.68,0,1.27,0.03c1.02,0.04,2.08,0.06,3.33,0.09c0.72,0.02,1.29,0.04,1.76,0.04h0.09c0.75,0,1.2-1.05,1.2-2.92
		c0-0.43-0.3-0.79-0.66-0.79c-0.14,0-0.23,0.11-0.23,0.26v0.29c0,1.16-1.77,2.13-3.9,2.13c-1.41,0-1.95-0.5-1.95-1.78v-2.54v-0.17
		c0.02-0.55,0.12-0.63,0.82-0.63h0.05l1.11,0.02c0.63,0,1.02,0.31,1.18,0.9c0.16,0.59,0.21,0.66,0.43,0.66
		c0.29,0,0.41-0.15,0.41-0.53v-0.07l-0.05-0.72c0-0.22-0.02-0.4-0.02-0.55c0-0.3,0.05-0.92,0.09-1.36c0.02-0.1,0.02-0.17,0.02-0.22
		c0-0.26-0.16-0.44-0.41-0.44c-0.25,0-0.36,0.13-0.43,0.57c-0.11,0.55-0.3,0.7-0.9,0.7h-0.14H160.31z M176.97,103.81v-0.15
		c0-1.4,0.11-1.69,0.77-1.97c0.31-0.11,0.41-0.2,0.41-0.37c0-0.26-0.29-0.43-0.73-0.43h-0.13c-0.45,0.02-0.7,0.02-0.75,0.02
		c-0.21,0.02-0.68-0.02-1.38-0.07h-0.15c-0.18-0.02-0.3-0.02-0.37-0.02c-0.5,0-0.77,0.15-0.77,0.46c0,0.2,0.13,0.31,0.45,0.37
		c1.18,0.2,1.43,0.61,1.43,2.28v0.13l0.05,3.77l0.02,0.55c0,0.27-0.05,0.42-0.13,0.42c-0.03,0-0.05-0.04-0.21-0.28
		c-0.07-0.09-0.22-0.27-0.39-0.53c-0.09-0.11-0.16-0.2-0.2-0.26l-4.03-5.14c-1.09-1.4-1.47-1.73-2.03-1.73h-0.11h-1.65h-0.11
		c-0.38,0-0.68,0.26-0.68,0.57c0,0.11,0.03,0.22,0.09,0.33c0.05,0.11,0.12,0.18,0.21,0.17c0-0.02,0.02,0,0.05-0.02
		c0.04-0.02,0.07-0.02,0.07-0.04l0.07-0.07c0.04-0.06,0.09-0.04,0.14-0.09h0.09c0.73,0,1.42,1.09,1.43,2.3v0.26l0.03,5.76v0.3
		c0,1.2-0.16,1.54-0.84,1.78c-0.59,0.22-0.7,0.31-0.7,0.55c0,0.29,0.24,0.44,0.66,0.44c0.16,0,0.52,0,1.09-0.06
		c0.2-0.02,0.36-0.04,0.48-0.04c0.32,0,0.81,0.04,1.43,0.09c0.15,0,0.24,0.02,0.31,0.02c0.32,0,0.52-0.15,0.52-0.4
		c0-0.22-0.13-0.33-0.66-0.59c-0.84-0.41-0.97-0.74-0.99-2.65l-0.07-4.41v-0.06c0-0.28,0-0.29,0.06-0.29c0.07,0,0.46,0.42,0.82,0.9
		l3.66,4.85c0.39,0.53,0.7,0.96,0.9,1.23c0.52,0.78,0.84,1.27,1,1.47c0.16,0.22,0.32,0.33,0.5,0.33c0.23,0,0.27-0.06,0.27-0.57
		v-0.22L176.97,103.81z M156.8,119.41l-6.18-0.09c-0.13-0.02-0.23,0-0.32,0c-0.38,0.02-0.62,0-0.75-0.06l-0.38-0.18
		c-0.13-0.07-0.27-0.11-0.39-0.11c-0.25,0-0.37,0.15-0.54,0.68l-0.39,1.25c-0.07,0.2-0.11,0.41-0.11,0.61
		c0,0.59,0.31,0.94,0.79,0.94c0.2,0,0.25-0.05,0.29-0.37c0.15-0.99,1.27-1.78,2.58-1.78c0.56,0,0.75,0.18,0.75,0.73v0.17v8.15v0.26
		c0,0.64-0.34,0.9-1.27,0.99c-0.29,0.02-0.41,0.17-0.41,0.44c0,0.29,0.23,0.44,0.66,0.44h0.48c0.84-0.05,1.45-0.09,1.74-0.09
		c0.32,0,0.63,0.02,0.93,0.06l0.59,0.05c0.07,0.02,0.12,0.02,0.2,0.02c0.48,0,0.75-0.14,0.75-0.46c0-0.33-0.11-0.41-0.61-0.46
		c-0.66-0.07-0.86-0.4-0.86-1.53v-0.26v-7.23v-0.27c0-0.77,0.18-0.99,0.77-0.99c1,0,1.75,0.42,1.75,0.99c0,0.11-0.03,0.27-0.09,0.5
		c-0.07,0.26-0.09,0.29-0.09,0.41c0,0.22,0.13,0.31,0.43,0.31c0.48,0,0.75-0.24,0.91-0.85l0.34-1.2c0.11-0.4,0.16-0.66,0.16-0.77
		c0-0.08-0.02-0.15-0.06-0.24c-0.07-0.11-0.23-0.22-0.36-0.22c-0.05,0-0.09,0-0.55,0.13c-0.13,0.04-0.32,0.05-0.63,0.04H156.8z
		 M162.53,122.37v-0.17c0-1.45,0.15-1.82,0.68-1.91c0.41-0.07,0.55-0.2,0.55-0.53c0-0.26-0.22-0.42-0.52-0.42
		c-0.14,0-0.45,0.02-0.91,0.07c-0.23,0.02-0.5,0.02-0.79,0.02c-0.46,0-0.9-0.02-1.32-0.07c-0.23-0.04-0.41-0.04-0.52-0.04
		c-0.29,0-0.48,0.17-0.48,0.44c0,0.26,0.11,0.33,0.54,0.42c0.61,0.11,0.77,0.55,0.77,2.17v0.07v6.16v0.11
		c0,1.16-0.07,1.51-0.39,1.66l-0.57,0.26c-0.22,0.11-0.34,0.28-0.34,0.46c0,0.27,0.25,0.44,0.65,0.44c0.09,0,0.29-0.02,0.48-0.04
		c0.52-0.06,0.88-0.09,1.23-0.09c0.34,0,0.7,0.04,1.09,0.09c0.27,0.02,0.72,0.03,0.9,0.03c0.31,0,0.43-0.13,0.43-0.41
		c0-0.37-0.13-0.41-0.72-0.51c-0.43-0.07-0.75-0.7-0.75-2.08l0.02-0.24L162.53,122.37z M170.46,126.99h0.37
		c0.59,0.02,0.66,0.09,0.93,0.85l0.39,1.14c0.02,0.02,0.06,0.17,0.11,0.44c0.04,0.18,0.05,0.37,0.05,0.46
		c0,0.48-0.22,0.75-0.63,0.88c-0.41,0.11-0.46,0.15-0.46,0.4c0,0.31,0.2,0.44,0.57,0.44h0.23c0.68-0.03,1.18-0.06,1.5-0.06
		c0.63,0,1.27,0.06,1.63,0.11c0.2,0.05,0.34,0.07,0.39,0.07c0.27,0,0.48-0.2,0.48-0.46c0-0.18-0.07-0.24-0.39-0.41
		c-0.59-0.26-0.93-0.7-1.27-1.69c-0.25-0.75-0.46-1.32-0.64-1.71l-2.2-5.15l-1.06-2.28c-0.36-0.74-0.54-0.92-0.88-0.94
		c-0.31,0-0.41,0.15-0.47,0.66c-0.04,0.35-0.09,0.53-0.32,1.09c-0.06,0.15-0.29,0.7-0.66,1.68l-1.92,4.82l-0.54,1.54
		c-0.31,0.85-0.91,1.49-1.46,1.71l-0.21,0.09c-0.18,0.09-0.26,0.21-0.26,0.4c0,0.31,0.17,0.41,0.6,0.43c0.05,0,0.13,0,0.22,0
		c0.5-0.04,1-0.06,1.25-0.06c0.31,0,0.66,0.02,1.06,0.06c0.36,0.03,0.55,0.06,0.59,0.06h0.29c0.34,0,0.5-0.11,0.5-0.39
		c0-0.24-0.05-0.29-0.37-0.44c-0.59-0.28-0.91-0.7-0.91-1.27c0-0.19,0.03-0.43,0.09-0.59l0.46-1.43c0.11-0.37,0.2-0.44,0.48-0.46
		h0.43H170.46z M168.81,125.83h-0.11c-0.3,0-0.54-0.15-0.54-0.33c0-0.15,0.02-0.22,0.14-0.59l0.61-1.84
		c0.18-0.51,0.27-0.68,0.39-0.68c0.13,0,0.25,0.18,0.43,0.62l0.81,1.98c0.18,0.42,0.2,0.5,0.2,0.61c0,0.17-0.11,0.22-0.38,0.22
		h-0.11H168.81z M96.98,163.48l2.73,8.4h8.83l-7.14,5.19l2.73,8.4l-7.14-5.19l-7.14,5.19l2.73-8.4l-7.14-5.19h8.83L96.98,163.48z
		 M152.84,171.88h-8.83l7.14,5.19l-2.73,8.4l7.14-5.19l7.14,5.19l-2.73-8.4l7.14-5.19h-8.83l-2.73-8.4L152.84,171.88z M10.25,160.85
		c9.13,4.75,8.65,11.75,18.16,19.55C19.59,176.93,15.43,165.12,10.25,160.85 M221.86,180.4c8.81-3.47,12.98-15.28,18.16-19.55
		C230.89,165.6,231.37,172.6,221.86,180.4 M250.05,155.59c-7.8,7.16-4.22,22.3-22.9,30.58c4.21,0.95,10.62-1.28,10.62-1.28
		c-5.08,30.35-29.83,22.01-33.9,26.84c7.71,0.01,14.39,1.67,16.38,6.4c-7.68,0.88-13.73,12.99-26.62,12.55
		c2.3,1.65,4.69,5.89,3.18,5.83c-3.53-0.16-8.19,3.74-16.39,3.37c-6.24-0.28-7.54-3.37-13.28-2.26c-11.21,5.55-27.62,9.2-42.1,8.95
		c-14.48,0.25-30.88-3.41-42.09-8.95c-5.74-1.11-7.04,1.98-13.28,2.26c-8.2,0.37-12.86-3.53-16.39-3.37
		c-1.5,0.07,0.88-4.18,3.18-5.83c-12.88,0.44-18.94-11.67-26.62-12.55c1.99-4.73,8.67-6.39,16.38-6.4
		c-4.07-4.84-28.82,3.51-33.9-26.84c0,0,6.41,2.23,10.62,1.28c-18.68-8.28-15.1-23.42-22.9-30.58c2.14-1.01,11.76-2.81,16.23,0.03
		c1.73-6.25-4.58-6.29-7.64-10.81c-5.72-8.45,0.73-20.04-1.88-29.98c5.3,1.49,8.35,5.71,11.38,10.36
		c-11.91-17.72,3.45-30.47,4.02-40.75c3.26,1.19,5.1,3.51,6.15,6.53c-2.98-15.08,7.49-23.75,12.54-27.17c0,0,1.07,0.93-0.38,1.92
		c-5.13,3.47-11.58,14.69-9.46,23.09c1.96-1.5,4.43-2.44,4.43-2.44c0.69-9.79,3.44-13.13,4.94-15.82c0,0,0,0.76-0.41,1.69
		c-1.57,3.55-3.2,8.13-2.96,13.49c2.04-0.82,2.92-1.37,3.9-1.98c0,0-0.3,2.11-0.43,2.13c-4.35,2.32-8.79,4.32-11,8.79
		c0,0,0.31,2.28,0.51,3.49c0,0,2.09-1.29,4.87-2.2c0,0,2.18-4.14,3.21-4.98c-0.17,1.48-5.12,7.05-2.67,21.42
		c5.15-3.99,4.92-9.1,5.09-10.86l0.21,7.09c-0.32,2.29-2.79,4.15-3.78,5.77c-1.03,4.46-2.98,6.99-5.86,11.35
		c3.12-2.17,4.19-2.69,6.85-3.02c-2.49,8.27,3.32,21.01-3.22,26.22c-1.31,1.04-3.19,3.39-1.63,5.45c2.33-1.96,3.33-3.16,4.1-5.87
		c0.67-2.37,3.15,4.42,2.79,8.96c-0.68,8.47,4.86,11.61,3.6,18.18c1.43-0.7,5.48-3.08,10.4-5.84c-6.61,10.52,0.92,18.13,9.55,12.92
		c0,0,4.32-2.17,8.93,1.21c0,0,5.53,3.84,3.84,8.06c0,0,19.77,21.11,46.26,21.8v-0.12c0.85,0.06,4.23,0.06,5.08,0v0.12
		c26.48-0.69,46.26-21.8,46.26-21.8c-1.69-4.22,3.84-8.06,3.84-8.06c4.61-3.38,8.92-1.21,8.92-1.21c8.63,5.21,16.16-2.4,9.55-12.92
		c4.92,2.77,8.97,5.15,10.4,5.84c-1.26-6.57,4.27-9.71,3.6-18.18c-0.36-4.55,2.12-11.33,2.79-8.96c0.77,2.7,1.77,3.91,4.09,5.87
		c1.57-2.06-0.31-4.4-1.62-5.45c-6.55-5.21-0.74-17.95-3.22-26.22c2.66,0.33,3.73,0.85,6.85,3.02c-2.89-4.37-4.83-6.89-5.86-11.35
		c-0.99-1.62-3.46-3.48-3.78-5.77l0.21-7.09c0.17,1.75-0.06,6.86,5.09,10.86c2.45-14.36-2.51-19.94-2.67-21.42
		c1.03,0.84,3.21,4.98,3.21,4.98c2.78,0.91,4.87,2.2,4.87,2.2c0.2-1.21,0.51-3.49,0.51-3.49c-2.21-4.47-6.75-6.53-11.1-8.85
		c-0.12-0.02-0.43-2.13-0.43-2.13c0.98,0.6,1.96,1.22,4.01,2.04c0.23-5.36-1.4-9.94-2.96-13.49c-0.41-0.93-0.41-1.69-0.41-1.69
		c1.5,2.69,4.25,6.03,4.94,15.82c0,0,2.47,0.94,4.43,2.44c2.12-8.41-4.33-19.62-9.46-23.09c-1.46-0.99-0.39-1.92-0.39-1.92
		c5.05,3.42,15.52,12.09,12.54,27.17c1.06-3.02,2.89-5.34,6.15-6.53c0.57,10.27,15.92,23.02,4.02,40.75
		c3.03-4.65,6.08-8.87,11.38-10.36c-2.61,9.94,3.84,21.54-1.88,29.98c-3.06,4.52-9.37,4.57-7.64,10.81
		C238.29,152.78,247.91,154.58,250.05,155.59 M241.02,118.23c-2.92,1.59-6.44,6.76-9.66,13.33c-2.73,5.56,0.79,14.42,0.79,14.42
		c4.12-6.71,1.13-13.16,5.37-16.46c-2.83,4.18-0.1,10.9-4.59,18.27C246.34,139.92,238.57,133.23,241.02,118.23 M225.38,149.84
		c2.26,1.73,1.4,10.43,0.86,11.68c0,0,3.73-3.73,5.39-4.68c-0.23-6.73-5.08-8-7.22-12.82c-0.34-0.05-4.49,7.68-4.9,9.67
		c-0.93,4.52,2.78,6.03,2.94,10.84c2.07-1.73,2.49-3.92,2.49-3.92l0-0.01C225.7,157.72,225.97,153.58,225.38,149.84 M226.64,87.66
		c-3.07,3.53-3.8,6.45-4.19,11.83c2.6,1.52,5.01,4.19,5.01,4.19c-0.82-1.93-2.05-8.24-1.21-10.06c0.96,10.79,7.18,14.17,6.57,23.07
		C237.31,106.18,226.1,92.17,226.64,87.66 M216.57,115.02c1.13,5.31,4.57,11.57,9.64,12.35c1.03-7.74-2.31-15.14-3.4-17.2
		c1.54,1.52,5.02,5.86,5.32,17.12c10.85-16.74-7.87-26.56-11.96-29.18C217.59,102.67,218.72,109.26,216.57,115.02 M226.93,135.1
		c0.01-2.94-0.45-3.57-0.72-4.58c-1.84-0.2-3.61-1.71-4.84-2.84C222.74,129.21,226.1,132.94,226.93,135.1 M214.31,125.25
		c2.29,8.89-4.61,18.03,4.46,23.82c3.17-5.56,1.19-15.01-0.92-17.19c3.88,3.02,3.94,12.39,3.94,12.39c2.87-5.02,3.02-3.1,3.02-3.1
		c0.71,1.51,2.77,4.53,3.66,4.6C229.22,141.19,220.37,126.55,214.31,125.25 M211.95,160.66c-0.05,6.25-6.06,11.43-2.34,16.72
		c0.89,1.27,4.35,3.19,4.35,3.19c-1.67-8.48,1.89-16.25,0.64-21.05c3.08,5.1-1.14,12.69,1.14,16.84c1.85-1.85,4.53-6.84,4.85-9.48
		c0.15-1.2-0.6-4.92-1.85-6.99c-2.37-3.96-4.71-5.16-5.98-8.13C211.35,154.28,211.97,158.01,211.95,160.66 M178.99,187.21
		c-1.16,0.65-2.28,1.5-2.42,3.29c8.66,4.78,13.78,13.58,20.57,20.24c0.7-4.23,1.95-7.91,6.38-8.41c-4-2.56-6.76-6.39-10.44-10.44
		c-2.69-2.95-6.36-6.46-9.03-6.69c-0.31,0.07-1.11,0.12-0.97,0.33c1.18,1.77,5.18,3.76,9.13,8.98c-1.66-1.43-6.2-6.17-10.31-8.79
		c-0.28,0.07-0.83,0.27-0.78,0.31c2.28,2.28,6.13,5.02,7.9,8.19c-2.68-2.91-6.43-5.33-8.77-7.77c-0.14,0.13-0.59,0.33-0.54,0.41
		c1.25,1.87,4.3,3.85,4.99,5.84C183.37,191.13,180.42,189.04,178.99,187.21 M66.05,185.19c-2.67,0.24-6.34,3.75-9.03,6.69
		c-3.69,4.05-6.44,7.88-10.44,10.44c4.43,0.5,5.68,4.18,6.38,8.41c6.79-6.66,11.91-15.45,20.57-20.24
		c-0.14-1.79-1.25-2.64-2.42-3.29c-1.42,1.83-4.38,3.92-5.71,5.47c0.69-1.98,3.75-3.97,4.99-5.84c0.05-0.08-0.39-0.28-0.53-0.41
		c-2.35,2.44-6.1,4.86-8.77,7.77c1.77-3.17,5.63-5.91,7.9-8.19c0.05-0.05-0.5-0.24-0.78-0.31c-4.11,2.63-8.65,7.36-10.31,8.79
		c3.95-5.22,7.95-7.2,9.13-8.98C67.16,185.31,66.36,185.26,66.05,185.19 M37.34,151.75c-1.26,2.97-3.6,4.17-5.97,8.13
		c-1.25,2.07-2,5.8-1.85,6.99c0.32,2.64,3,7.63,4.85,9.48c2.28-4.14-1.95-11.73,1.14-16.84c-1.25,4.81,2.31,12.57,0.64,21.05
		c0,0,3.46-1.92,4.35-3.19c3.72-5.29-2.29-10.47-2.34-16.72C38.13,158.01,38.75,154.28,37.34,151.75 M24.72,149.84
		c-0.59,3.74-0.32,7.88,0.45,10.76l0,0.01c0,0,0.42,2.19,2.49,3.92c0.15-4.81,3.87-6.32,2.94-10.84c-0.41-1.98-4.56-9.71-4.9-9.67
		c-2.14,4.82-6.99,6.09-7.22,12.82c1.66,0.95,5.39,4.68,5.39,4.68C23.32,160.27,22.46,151.57,24.72,149.84 M35.79,125.25
		c-6.05,1.3-14.91,15.94-14.15,20.52c0.89-0.08,2.95-3.09,3.66-4.6c0,0,0.15-1.92,3.02,3.1c0,0,0.06-9.37,3.94-12.39
		c-2.11,2.18-4.09,11.63-0.92,17.19C40.39,143.28,33.5,134.14,35.79,125.25 M23.17,135.1c0.83-2.16,4.2-5.89,5.55-7.42
		c-1.23,1.13-2.99,2.64-4.84,2.84C23.62,131.52,23.16,132.16,23.17,135.1 M33.92,98.11c-4.09,2.62-22.81,12.45-11.96,29.18
		c0.31-11.26,3.78-15.6,5.32-17.12c-1.09,2.06-4.44,9.46-3.4,17.2c5.08-0.78,8.51-7.04,9.64-12.35
		C31.38,109.26,32.51,102.67,33.92,98.11 M17.28,116.7c-0.61-8.91,5.61-12.29,6.57-23.07c0.84,1.82-0.38,8.12-1.21,10.06
		c0,0,2.41-2.66,5.01-4.19c-0.38-5.38-1.12-8.3-4.19-11.83C24,92.17,12.79,106.18,17.28,116.7 M9.08,118.23
		c2.46,15-5.31,21.7,8.09,29.57c-4.49-7.37-1.77-14.09-4.6-18.27c4.25,3.3,1.25,9.75,5.38,16.46c0,0,3.52-8.87,0.79-14.42
		C15.52,124.99,12,119.81,9.08,118.23 M4.05,156.84c5.34,4.86,5.48,28.59,28.61,27.5C27.07,157.16,8.41,155.29,4.05,156.84
		 M15.1,188.16c0.79,4.72,7.02,20.62,24.63,18.05c-9.31-1.31-10.84-7.94-10.84-7.94c-1.58-2.63-6.34-2.98-8.21-5.66
		c3.14,1.42,5.27,1.96,7.18,1.54c-0.18-2.02,0.47-3.92,1.07-5.16C25.6,186.85,18.91,190.5,15.1,188.16 M31.21,190.43
		c-2.24,7.07,3.04,13.84,9.92,12.02c5.51-1.46,15.77-14.41,17.97-16.01c-8.23,0.9-10.62-6-9.04-11.82
		C38.39,181.6,32.03,187.83,31.21,190.43 M41.37,206c5.06,1.28,7.21,3.69,9.02,6.13C50.08,208.57,48.43,201.9,41.37,206
		 M47.25,225.23c4.39,2.76,13.76,3.54,16.7,0.81c-9.58-0.13-14.74-7.53-20.49-7.76c4.03-1.67,13.37,6.1,16.08,5.02
		c-1.81-8.38-20.04-11.32-25.44-6.35C40.27,218.14,44.41,223.44,47.25,225.23 M57.44,234.8c3.19,0.29,12.6,5.44,19.07,0.45
		c-1.3-2.55-9.56-1.75-11.81-1.23c1.91-1.21,5.07-2,9.09-1.39C68.27,227.94,59.65,231.42,57.44,234.8 M125.05,243.78
		c41.39-0.1,69.91-28.52,70.07-29.65c0.42-2.92-13.08-16.54-18.57-20.81c-10.77,11.49-26.93,22.38-48.96,23.18v0.01
		c-0.13,0-0.26,0-0.39,0.01c-0.27,0.01-0.54,0.01-0.81,0.01c-0.45,0.01-2.23,0.01-2.68,0c-0.27,0-0.54-0.01-0.81-0.01
		c-0.13,0-0.26,0-0.39-0.01v-0.01c-22.03-0.8-38.19-11.7-48.96-23.18c-5.49,4.27-18.99,17.89-18.57,20.81
		C55.15,215.27,83.66,243.68,125.05,243.78 M173.59,235.25c6.47,4.98,15.88-0.17,19.07-0.45c-2.2-3.38-10.83-6.86-16.35-2.17
		c4.02-0.6,7.18,0.18,9.09,1.39C183.14,233.5,174.88,232.7,173.59,235.25 M216,216.95c-5.4-4.97-23.63-2.03-25.44,6.35
		c2.71,1.07,12.05-6.7,16.08-5.02c-5.75,0.23-10.91,7.63-20.5,7.76c2.94,2.73,12.31,1.95,16.71-0.81
		C205.7,223.44,209.83,218.14,216,216.95 M199.72,212.13c1.81-2.44,3.96-4.85,9.02-6.13C201.67,201.9,200.02,208.57,199.72,212.13
		 M191,186.44c2.19,1.6,12.46,14.55,17.97,16.01c6.89,1.83,12.17-4.94,9.92-12.02c-0.82-2.6-7.18-8.83-18.85-15.82
		C201.63,180.44,199.23,187.34,191,186.44 M235,188.16c-3.81,2.35-10.49-1.31-13.82,0.83c0.59,1.25,1.25,3.14,1.07,5.16
		c1.9,0.42,4.03-0.12,7.18-1.54c-1.87,2.68-6.64,3.02-8.22,5.66c0,0-1.53,6.64-10.84,7.94C227.99,208.78,234.22,192.88,235,188.16
		 M217.44,184.34c23.13,1.09,23.27-22.64,28.61-27.5C241.69,155.29,223.03,157.16,217.44,184.34 M133.41,68.78
		c-0.36,9.66-0.82,21.64-1.3,34.25l-0.3,7.72c-1.44,37.66-3.01,77.89-3.01,77.89c0.6-26.55,1.1-52.35,1.54-77.87l0.13-7.75
		c0.2-11.6,0.38-23.16,0.56-34.7L133.41,68.78z M134.95,69.3c-0.52,12.08-1,23.07-1.47,33.64l-0.13,2.89
		c-1.06,23.84-2.08,45.82-3.35,73.73c0,0,4.53-69.49,6.97-109.32L134.95,69.3z M145.72,60.89c-1.48,2.95-4.11,8.59-4.54,9.71
		l-8.23,121.78c0.01,3.84-2.53,6.71-6.43,6.92v0.01l-0.42-0.01c-3.9-0.22-6.45-2.97-6.45-6.92l-8.89-122.47l-5.74-8.68
		c0.5-0.6,2.23-1.55,2.92-1.81c-1.56-1.21-2.49-2.07-3.66-3.7c-4.37-6.03-2.79-14.51-7.07-20.7c-1.32-1.9-2.86-2.8-4.68-3.41
		c4.31-2.19,11.63-0.65,14.88,3.95c-1.28-5.89-19.36-20.42-12.15-35.52c0.05,2.5,3.74,7.46,5.22,9.51
		c2.65,3.66,6.84,6.85,11.18,9.48c-1.27-1.92-1.88-7.2-1.28-11.23c4.57,10.63,38.07,15.95,31.49,51.11
		C143.8,59.92,145.72,60.89,145.72,60.89z M138.97,57.41c3.96-27.51-21.87-37.95-25.08-40.78c3.02,4.57,11.08,14.04,8.63,21.81
		c-1.63-1.44-3.02-2.45-4.78-3.08c1.59,2.66,3.93,6.7,0.99,14c-0.29,0.73,0.28-7.62-3.42-11.48c-3.37-3.51-5.12-7.62-5.94-12.29
		c1.22,1.56,7.53,6.6,10.6,7.21c-3.73-11.28-13.53-11.04-21.79-21.45c-0.59-0.74-1-1.52-1.43-2.38c0.54,9.07,7.82,13.95,12.02,22.46
		c3.72,7.55,1.04,12.2,1.04,12.2s-1.39-3.27-3.17-5.36c-2.05-2.41-4.17-3.03-5.62-2.46c3.56,6.13,1.08,12.54,6.52,19.14
		C114.3,63.15,116.41,49.46,138.97,57.41z M138.4,69.54c-5.05-2.68-10.68-2.99-13.34-2.36l0.57,36.2l1.68-0.45
		c-0.09-12.14-0.13-23.28-0.05-34.74l2.19,0.08c-0.09,9.6-0.22,21.77-0.36,34.74l-0.09,7.79c-0.46,39.53-1.02,83.05-1.02,83.05
		c0.07-26.78-0.39-54.16-0.63-82.67h-1.59l1.33,84.5c1.68-0.43,2.92-1.96,2.92-3.77L138.4,69.54z M142.02,61.83
		c0,0-5.26-4.32-17.09-3.69l0.14,6.42c0,0,5.44-0.91,14.39,2.79L142.02,61.83z"/>
	<g>
		<path fill="#C6A141" d="M134.5,103.07c0.12,0.23,0.21,0.46,0.21,0.75c0,0.23-0.06,0.41-0.16,0.69l-0.27,0.78
			c-0.34,1.05-1.07,1.27-1.63,1.27c-0.35,0-0.7-0.13-0.96-0.39v2.31c0.94,0.15,1.28,0.86,1.28,1.45c0,0.52-0.35,1.39-1.64,1.39
			c-0.32,0-0.51-0.07-1.44-0.07c-0.53,0-0.91,0.05-1.6,0.05c-1.09,0-1.58-0.71-1.58-1.38c0-0.76,0.53-1.37,1.25-1.46v-2.82
			c-0.22,0.62-0.76,0.85-1.24,0.85c-0.95,0-1.67-0.71-1.67-1.65c0-0.26,0.05-0.51,0.16-0.76l0.25-0.63
			c0.34-0.91,0.97-1.11,1.43-1.11c0.39,0,0.59,0.12,0.67,0.12c0.5,0.02,3.18,0.05,4.83,0.07c0.06,0,0.23,0,0.32-0.01
			c0.2-0.04,0.38-0.11,0.6-0.11C133.83,102.42,134.22,102.72,134.5,103.07z"/>
		<path fill="#C6A141" d="M125.9,106.92c0.88,0,1.59,0.71,1.59,1.57c0,2.6-1.62,2.73-1.94,2.73c-1.52-0.01-3.85-0.09-4.56-0.08
			c-0.67-0.01-0.88,0.06-1.32,0.04c-0.96,0-1.48-0.69-1.48-1.34c0-0.37,0.14-0.99,1.03-1.29c0-0.91-0.01-3.11-0.01-3.69
			c-0.42-0.17-0.98-0.49-0.98-1.24c0-0.77,0.63-1.37,1.43-1.37c0.26,0,0.51,0.09,1.16,0.09c0.67,0,0.95-0.03,2.01-0.03
			c0.57,0,1.42,0.06,1.71,0.08c1.61,0.07,1.73,1.16,1.73,1.49c0,0.81-0.32,1.48-0.81,1.86c0.02,0.29-0.08,0.58-0.12,0.88
			c0,0.14,0.01,0.28,0.03,0.42C125.51,106.96,125.7,106.92,125.9,106.92z"/>
	</g>
	<path fill="#FFFFFF" d="M133.56,103.81c0,0.06-0.08,0.27-0.15,0.48l-0.22,0.64c-0.11,0.32-0.22,0.48-0.54,0.48
		c-0.2,0-0.21-0.19-0.21-0.31c0-0.06,0.01-0.08,0.06-0.22c0.04-0.12,0.01-0.14,0.01-0.2c0-0.3-0.79-0.48-1.45-0.48
		c-0.39,0-0.51,0.12-0.51,0.53v4.04c0,0.73,0.44,0.77,0.87,0.81c0.33,0.03,0.4,0.16,0.4,0.33c0,0.17-0.18,0.24-0.5,0.24
		c-0.29,0-0.4-0.07-1.44-0.07c-0.19,0-0.73,0.02-1.28,0.05h-0.32c-0.28,0-0.44-0.08-0.44-0.24c0-0.15,0.08-0.31,0.27-0.32
		c0.61-0.05,0.98-0.19,0.98-0.53v-4.47c0-0.29-0.13-0.39-0.5-0.39c-0.86,0-1.61,0.42-1.7,0.95c-0.02,0.17-0.06,0.2-0.19,0.2
		c-0.32,0-0.52-0.19-0.52-0.5c0-0.11,0.03-0.21,0.07-0.32l0.26-0.67c0.11-0.28,0.19-0.36,0.36-0.36c0.08,0,0.18,0.02,0.26,0.06
		l0.25,0.05c0.08,0.03,5,0.08,5,0.08s0.43,0,0.51-0.02c0.31-0.07,0.37-0.1,0.41-0.1c0.08,0,0.19,0.06,0.24,0.12
		C133.55,103.74,133.56,103.77,133.56,103.81z M125.9,108.06c-0.09,0-0.15,0.06-0.15,0.14v0.16c0,0.63-0.92,1.04-2.76,1.04
		c-0.95,0-1.31-0.18-1.31-0.88v-1.43c0.01-0.3,0.08-0.34,0.55-0.34l0.65,0.01c0.42,0,0.68,0.17,0.79,0.49
		c0.11,0.32,0.14,0.36,0.29,0.36c0.19,0,0.28-0.07,0.28-0.33l-0.04-0.39c0-0.12-0.01-0.22-0.01-0.3c0-0.16,0.09-0.46,0.11-0.7
		c0.01-0.05,0.01-0.09,0.01-0.12c0-0.14-0.11-0.24-0.28-0.24c-0.17,0-0.24,0.07-0.29,0.31c-0.07,0.3-0.25,0.34-0.65,0.34h-1
		c-0.31,0-0.43-0.07-0.43-0.29v-1.6c0,0-0.03-0.28,0.54-0.28c0.14,0,0.27,0,0.41,0c0.48,0,0.95,0.02,1.3,0.19
		c0.22,0.11,0.34,0.22,0.34,0.32c0,0.06-0.06,0.11-0.06,0.23c0,0.1,0.12,0.17,0.29,0.17c0.35,0,0.64-0.47,0.64-1.05
		c0-0.24-0.16-0.33-0.64-0.35l-1.22-0.07c-0.11-0.01-0.25-0.01-0.44-0.01c-1.18,0-1.4,0.03-2.01,0.03c-0.81,0-0.96-0.09-1.16-0.09
		c-0.17,0-0.29,0.1-0.29,0.23c0,0.11,0.21,0.16,0.67,0.32c0.25,0.09,0.31,0.24,0.31,0.78c0,0,0.01,4.18,0.01,4.23
		c0,0.46-0.2,0.56-0.56,0.63c-0.35,0.07-0.47,0.15-0.47,0.27c0,0.13,0.13,0.2,0.34,0.2c0.44,0,0.58-0.04,1.32-0.04
		c0.58,0,3.04,0.07,4.56,0.08c0.5,0,0.8-0.57,0.8-1.58C126.34,108.27,126.13,108.06,125.9,108.06z"/>
</g>
</svg>
